<svg width="1337" height="856" viewBox="0 0 1337 856" fill="none" xmlns="http://www.w3.org/2000/svg">
<path d="M555.035 157.14C491.183 115.464 413.39 100.86 338.77 116.541C264.15 132.222 198.816 176.903 157.14 240.756C115.464 304.608 100.86 382.401 116.541 457.021C132.222 531.641 176.903 596.975 240.756 638.651L397.896 397.896L555.035 157.14Z" fill="url(#paint0_radial_80_110)"/>
<path d="M781.755 157.14C845.607 115.464 923.4 100.86 998.02 116.541C1072.64 132.222 1137.97 176.903 1179.65 240.756C1221.33 304.608 1235.93 382.401 1220.25 457.021C1204.57 531.641 1159.89 596.975 1096.03 638.651L938.895 397.896L781.755 157.14Z" fill="url(#paint1_radial_80_110)"/>
<circle cx="662.5" cy="568.5" r="287.5" fill="url(#paint2_radial_80_110)"/>
<defs>
<radialGradient id="paint0_radial_80_110" cx="0" cy="0" r="1" gradientUnits="userSpaceOnUse" gradientTransform="translate(397.896 397.896) rotate(33.1322) scale(287.5)">
<stop/>
<stop offset="0.8" stop-color="#010C0D"/>
<stop offset="1" stop-color="#18B65C"/>
</radialGradient>
<radialGradient id="paint1_radial_80_110" cx="0" cy="0" r="1" gradientUnits="userSpaceOnUse" gradientTransform="translate(938.895 397.896) rotate(146.868) scale(287.5)">
<stop/>
<stop offset="0.8" stop-color="#010C0D"/>
<stop offset="1" stop-color="#18B65C"/>
</radialGradient>
<radialGradient id="paint2_radial_80_110" cx="0" cy="0" r="1" gradientUnits="userSpaceOnUse" gradientTransform="translate(662.5 568.5) rotate(90) scale(287.5)">
<stop/>
<stop offset="0.8" stop-color="#010C0D"/>
<stop offset="1" stop-color="#18B65C"/>
</radialGradient>
</defs>
</svg>
