<svg width="129" height="143" viewBox="0 0 129 143" fill="none" xmlns="http://www.w3.org/2000/svg">
<g clip-path="url(#clip0_5_132)">
<path d="M128.604 -0.145752H0.395844L11.7083 128.063L64.5 143.146L117.292 128.063L128.604 -0.145752Z" fill="#0277BD"/>
<path d="M64.5 11.1667V131.456L106.733 119.39L116.16 11.1667H64.5Z" fill="#039BE5"/>
<path d="M98.8146 30.0208H64.5V45.1041H82.9771L81.8458 60.1874H64.5V75.2708H81.0917L79.9604 92.2395L64.5 97.5187V113.356L94.2896 103.552L96.9292 60.1874L98.8146 30.0208Z" fill="white"/>
<path d="M64.5 30.0208V45.1041H30.9396L29.8083 30.0208H64.5ZM47.1542 60.1874L47.9083 75.2708H64.5V60.1874H47.1542ZM48.6625 82.8124H33.5792L34.7104 103.552L64.5 113.356V97.5187L49.0396 92.2395L48.6625 82.8124Z" fill="#EEEEEE"/>
</g>
<defs>
<clipPath id="clip0_5_132">
<rect width="129" height="143" fill="white"/>
</clipPath>
</defs>
</svg>
