<?xml version="1.0" encoding="UTF-8"?>
<svg id="Layer_2" data-name="Layer 2" xmlns="http://www.w3.org/2000/svg" viewBox="0 0 103.62 102.3">
  <defs>
    <style>
      .cls-1 {
        stroke-width: 4px;
      }

      .cls-1, .cls-2, .cls-3 {
        fill: none;
      }

      .cls-1, .cls-3 {
        stroke: #a0a1a6;
        stroke-linecap: round;
        stroke-miterlimit: 10;
      }

      .cls-4 {
        fill: #a0a1a6;
      }
    </style>
  </defs>
  <g id="Laag_1" data-name="Laag 1">
    <g>
      <path class="cls-4" d="m93.15,40.64l-17.17,57.26h2c4.68,0,9.53-3.52,10.83-7.86l14.81-49.4h-10.48Z"/>
      <path class="cls-4" d="m70.22,41.7c-.07-.17-.27-.24-.49-.19-.03-.01-.07-.02-.11-.02-5.75,0-11.7,4.32-13.3,9.66l-13.8,46.05c-.06.19.06.35.27.35h10.03c.21,0,.43-.15.48-.35l11.51-38.41,11.64,30.73,5.25-17.51-11.49-30.32Z"/>
    </g>
    <path class="cls-1" d="m43.08,95.28c-7.19-1.6-14.03-4.8-19.9-9.39-11.83-9.24-18.94-23.49-18.24-38.1.69-14.44,8.75-27.63,21.23-35.4s27.57-9.6,41.4-4.96c16.34,5.48,28.57,19.64,31.65,35.9"/>
    <line class="cls-3" x1="25.82" y1="88.18" x2="55.34" y2="45.61"/>
    <line class="cls-3" x1="18.66" y1="80.2" x2="57.13" y2="55.37"/>
    <line class="cls-3" x1="7.35" y1="63.25" x2="56.23" y2="45.61"/>
    <line class="cls-3" x1="5.38" y1="53.37" x2="55.34" y2="52.71"/>
    <line class="cls-3" x1="11.32" y1="28.92" x2="55.34" y2="45.61"/>
    <line class="cls-3" x1="17.16" y1="20.7" x2="54.44" y2="52.71"/>
    <line class="cls-3" x1="39.42" y1="8.16" x2="62.77" y2="47.22"/>
    <line class="cls-3" x1="49.57" y1="5.96" x2="56.58" y2="51.74"/>
    <line class="cls-3" x1="72.33" y1="9.26" x2="63.39" y2="53.6"/>
    <line class="cls-3" x1="83.07" y1="15.46" x2="55.34" y2="45.61"/>
    <line class="cls-3" x1="95.16" y1="25.35" x2="63.39" y2="53.6"/>
    <line class="cls-3" x1="100.06" y1="34.09" x2="55.34" y2="45.61"/>
    <path class="cls-4" d="m100.08,42.44c-.52.14-1.05-.17-1.2-.7l-1.78-6.55c-.16-.59.19-1.19.77-1.35l2.57-.7c.58-.16,1.18.18,1.33.76l1.76,6.46c.16.59-.19,1.19-.77,1.35l-2.68.73"/>
    <path class="cls-4" d="m33.97,94.43c.18-.52.78-.79,1.32-.6l6.87,2.36c.54.19.83.76.65,1.28l-1,2.82c-.18.52-.78.79-1.32.6l-6.87-2.36c-.54-.19-.83-.76-.65-1.28l1-2.82"/>
    <path class="cls-4" d="m23.73,88.61c.31-.46.95-.58,1.43-.28l6.11,3.86c.48.3.62.93.31,1.38l-1.68,2.5c-.31.46-.95.58-1.43.28l-6.11-3.86c-.48-.3-.62-.93-.31-1.38l1.68-2.5"/>
    <path class="cls-4" d="m15.2,80.63c.41-.37,1.07-.35,1.47.06l5,5.14c.39.4.38,1.04-.04,1.41l-2.26,2.03c-.41.37-1.07.35-1.47-.06l-5-5.14c-.39-.4-.38-1.04.04-1.41l2.26-2.03"/>
    <path class="cls-4" d="m8.87,70.95c.5-.26,1.13-.09,1.41.39l3.59,6.12c.28.48.11,1.09-.39,1.36l-2.7,1.44c-.5.26-1.13.09-1.41-.39l-3.59-6.12c-.28-.48-.11-1.09.39-1.36l2.7-1.44"/>
    <path class="cls-4" d="m5.1,60.12c.55-.14,1.12.18,1.28.71l1.98,6.75c.16.53-.17,1.08-.71,1.22l-2.99.77c-.55.14-1.12-.18-1.28-.71l-1.98-6.75c-.16-.53.17-1.08.71-1.22l2.99-.77"/>
    <path class="cls-4" d="m4.11,48.78c.57-.01,1.05.43,1.07.98l.26,6.99c.02.55-.43,1.01-1,1.02l-3.11.06c-.57.01-1.05-.43-1.07-.98L0,49.86c-.02-.55.43-1.01,1-1.02l3.11-.06"/>
    <path class="cls-4" d="m5.96,37.59c.56.12.92.66.8,1.19l-1.49,6.82c-.12.54-.67.87-1.23.75l-3.04-.66c-.56-.12-.92-.66-.8-1.19l1.49-6.82c.12-.54.67-.87,1.23-.75l3.04.66"/>
    <path class="cls-4" d="m10.55,27.19c.51.25.73.85.49,1.34l-3.14,6.25c-.25.49-.87.69-1.38.45l-2.8-1.34c-.51-.25-.73-.85-.49-1.34l3.14-6.25c.25-.49.87-.69,1.38-.45l2.8,1.34"/>
    <path class="cls-4" d="m17.6,18.18c.44.36.5.99.14,1.41l-4.61,5.32c-.36.42-1.02.47-1.46.11l-2.4-1.94c-.44-.36-.5-.99-.14-1.41l4.61-5.32c.36-.42,1.02-.47,1.46-.11l2.4,1.94"/>
    <path class="cls-4" d="m26.71,11.1c.34.45.25,1.07-.21,1.39l-5.82,4.09c-.46.32-1.11.22-1.45-.23l-1.86-2.43c-.34-.45-.25-1.07.21-1.39l5.82-4.09c.46-.32,1.11-.22,1.45.23l1.86,2.43"/>
    <path class="cls-4" d="m37.35,6.34c.22.51-.03,1.09-.55,1.3l-6.69,2.61c-.53.21-1.14-.04-1.36-.55l-1.21-2.78c-.22-.51.03-1.09.55-1.3l6.69-2.61c.53-.21,1.14.04,1.36.55l1.21,2.78"/>
    <path class="cls-4" d="m48.91,4.19c.09.54-.3,1.05-.86,1.13l-7.17.99c-.56.08-1.1-.3-1.19-.85l-.49-2.96c-.09-.54.3-1.05.86-1.13l7.17-.99c.56-.08,1.1.3,1.19.85l.49,2.96"/>
    <path class="cls-4" d="m60.7,4.77c-.05.55-.55.95-1.12.89l-7.23-.69c-.57-.05-.99-.55-.95-1.09l.26-2.98c.05-.55.55-.95,1.12-.89l7.23.69c.57.05.99.55.95,1.09l-.26,2.98"/>
    <path class="cls-4" d="m72.05,8.05c-.18.52-.77.79-1.31.61l-6.88-2.34c-.54-.18-.83-.76-.65-1.27l.99-2.82c.18-.52.77-.79,1.31-.61l6.88,2.34c.54.18.83.76.65,1.27l-.99,2.82"/>
    <path class="cls-4" d="m82.31,13.83c-.31.46-.95.59-1.43.28l-6.12-3.84c-.48-.3-.62-.92-.32-1.38l1.67-2.5c.31-.46.95-.59,1.43-.28l6.12,3.84c.48.3.62.92.32,1.38l-1.67,2.5"/>
    <path class="cls-4" d="m90.86,21.79c-.41.37-1.07.35-1.47-.05l-5.01-5.13c-.39-.4-.38-1.04.03-1.41l2.25-2.03c.41-.37,1.07-.35,1.47.05l5.01,5.13c.39.4.38,1.04-.03,1.41l-2.25,2.03"/>
    <path class="cls-4" d="m97.23,32.45c-.49.27-1.13.09-1.42-.39l-3.61-6.11c-.28-.48-.11-1.09.38-1.36l2.7-1.45c.49-.27,1.13-.09,1.42.39l3.61,6.11c.28.48.11,1.09-.38,1.36l-2.7,1.45"/>
    <line class="cls-2" x1="81.93" y1="98.89" x2="82.62" y2="100.15"/>
    <path class="cls-4" d="m43.91,97.91c.02-.57.5-1.02,1.06-1.01l7.24.21c.57.02,1.02.5,1,1.07l-.09,3.11c-.02.57-.5,1.02-1.06,1.01l-7.24-.21c-.57-.02-1.02-.5-1-1.07l.09-3.11"/>
  </g>
</svg>