<svg width="100" height="149" viewBox="0 0 100 149" fill="none" xmlns="http://www.w3.org/2000/svg">
<g clip-path="url(#clip0_5_191)">
<path d="M53.625 49.5625H25.125C11.3524 49.5625 0.1875 38.3976 0.1875 24.625C0.1875 10.8524 11.3524 -0.3125 25.125 -0.3125H53.625V49.5625Z" fill="#E64A19"/>
<path d="M50.0625 99.4375H25.125C11.3524 99.4375 0.1875 88.2726 0.1875 74.5C0.1875 60.7274 11.3524 49.5625 25.125 49.5625H50.0625V99.4375Z" fill="#7C4DFF"/>
<path d="M25.125 149.312C11.3524 149.312 0.1875 138.148 0.1875 124.375C0.1875 110.602 11.3524 99.4375 25.125 99.4375H50.0625V124.375C50.0625 138.148 38.8976 149.312 25.125 149.312Z" fill="#66BB6A"/>
<path d="M75 49.5625H50.0625V-0.3125H75C88.7726 -0.3125 99.9375 10.8524 99.9375 24.625C99.9375 38.3976 88.7726 49.5625 75 49.5625Z" fill="#FF7043"/>
<path d="M75 99.4375C88.7726 99.4375 99.9375 88.2726 99.9375 74.5C99.9375 60.7274 88.7726 49.5625 75 49.5625C61.2274 49.5625 50.0625 60.7274 50.0625 74.5C50.0625 88.2726 61.2274 99.4375 75 99.4375Z" fill="#29B6F6"/>
</g>
<defs>
<clipPath id="clip0_5_191">
<rect width="100" height="149" fill="white"/>
</clipPath>
</defs>
</svg>
