<svg width="116" height="116" viewBox="0 0 116 116" fill="none" xmlns="http://www.w3.org/2000/svg">
<g clip-path="url(#clip0_5_187)">
<path d="M0.25 115.75V0.25H115.75V115.75H0.25Z" fill="#FFD600"/>
<path d="M75.7677 86.7051C77.9879 90.3113 80.4006 93.7667 85.5114 93.7667C89.8042 93.7667 92.0564 91.6331 92.0564 88.6815C92.0564 85.1491 89.7272 83.8946 85.0045 81.8381L82.4154 80.7344C74.9432 77.5646 69.9735 73.5927 69.9735 65.2029C69.9735 57.4708 75.8929 51.5867 85.1425 51.5867C91.7292 51.5867 96.4615 53.8678 99.8751 59.8417L91.8094 64.9975C90.0352 61.8277 88.1166 60.5797 85.1425 60.5797C82.1074 60.5797 80.1856 62.495 80.1856 64.9975C80.1856 68.0904 82.1106 69.3416 86.5542 71.257L89.1433 72.3607C97.9502 76.1112 102.917 79.9419 102.917 88.5531C102.917 97.8316 95.5888 102.917 85.7521 102.917C76.1303 102.917 70.6665 98.0883 67.625 92.1112L75.7677 86.7051ZM38.596 86.9682C40.2194 89.875 42.6866 92.1112 46.235 92.1112C49.6294 92.1112 51.5833 90.7701 51.5833 85.5565V51.5835H62.2767V87.1992C62.2767 98.0017 56.0108 102.917 46.8606 102.917C38.5928 102.917 32.6253 97.3151 30.1934 92.1112L38.596 86.9682Z" fill="#000001"/>
</g>
<defs>
<clipPath id="clip0_5_187">
<rect width="116" height="116" fill="white"/>
</clipPath>
</defs>
</svg>
