<svg width="116" height="116" viewBox="0 0 116 116" fill="none" xmlns="http://www.w3.org/2000/svg">
<g clip-path="url(#clip0_5_179)">
<path d="M115.75 0.25H0.249985V115.75H115.75V0.25Z" fill="#1976D2"/>
<path d="M69.197 51.5833H26.6449V62.0552H41.907V109.333H53.9992V62.0552H69.197V51.5833Z" fill="white"/>
<path d="M106.747 64.6862C106.747 64.6862 101.014 60.8619 94.5332 60.8619C88.0524 60.8619 85.7199 63.9419 85.7199 67.2336C85.7199 75.7293 109.401 74.8791 109.401 91.9763C109.401 118.313 73.2941 106.632 73.2941 106.632V93.9975C73.2941 93.9975 80.1984 99.2014 88.4791 99.2014C96.7598 99.2014 96.4454 93.7858 96.4454 93.0414C96.4454 85.1842 72.9764 85.1842 72.9764 67.7662C72.9764 44.0855 107.171 53.4282 107.171 53.4282L106.747 64.6862Z" fill="white"/>
</g>
<defs>
<clipPath id="clip0_5_179">
<rect width="116" height="116" fill="white"/>
</clipPath>
</defs>
</svg>
